# xmcd
#
# Track frame offsets:
#	150
#	11602
#	23735
#	38927
#	49912
#	65727
#	80242
#	93650
#	105037
#	123627
#	134540
#	148787
#	160375
#	176477
#	193532
#
# Disc length: 2883 seconds
#
# Revision: 0
# Processed by: cddbd v1.5.2PL0 Copyright (c) Steve Scherf et al.
# Submitted via: audiograbber 1.83.01
#
DISCID=d50b410f
DTITLE=The Platters - The Blues and Soul Collection
DYEAR=1994
DGENRE=Soul
TTITLE0=The Drifters - Saturday Night At The Movies
TTITLE1=Brooke Benton - Kiddio
TTITLE2=Mary Wells - My Guy
TTITLE3=The Platters - Smoke Gets In Your Eyes
TTITLE4=Lady Love - Lou Rawls
TTITLE5=B J Thomas - Hooked On A Feeling
TTITLE6=Dobie Gray - The in-crowd
TTITLE7=Fats Domino - Blue Monday
TTITLE8=James Brown - Bring It On
TTITLE9=Fats Domino - Walkin' To New Orleans
TTITLE10=The Del Vikings - Come Go With Me
TTITLE11=The Platters - Only You
TTITLE12=Dobie Gray - Drift Away
TTITLE13=Inkspots - I Don't Want To Set The World On Fire
TTITLE14=George McCrae - Rock Your Baby
EXTD=
EXTT0=
EXTT1=
EXTT2=
EXTT3=
EXTT4=
EXTT5=
EXTT6=
EXTT7=
EXTT8=
EXTT9=
EXTT10=
EXTT11=
EXTT12=
EXTT13=
EXTT14=
PLAYORDER=
